<svg width="33" height="33" viewBox="0 0 33 33" fill="none" xmlns="http://www.w3.org/2000/svg">
<path fill-rule="evenodd" clip-rule="evenodd" d="M33 16.5C33 25.6127 25.6127 33 16.5 33C7.3873 33 0 25.6127 0 16.5C0 7.3873 7.3873 0 16.5 0C25.6127 0 33 7.3873 33 16.5ZM17.0912 12.181C15.4865 12.8485 12.279 14.2301 7.46888 16.3258C6.68779 16.6364 6.27863 16.9403 6.24139 17.2374C6.17842 17.7396 6.80725 17.9373 7.66355 18.2065C7.78003 18.2432 7.90072 18.2812 8.02444 18.3213C8.86691 18.5952 10.0002 18.9156 10.5893 18.9282C11.1237 18.9398 11.7202 18.7195 12.3787 18.2673C16.8729 15.2336 19.1928 13.7002 19.3384 13.6672C19.4413 13.6439 19.5836 13.6145 19.6801 13.7003C19.7765 13.786 19.7671 13.9484 19.7568 13.992C19.6945 14.2575 17.2261 16.5524 15.9488 17.74C15.5506 18.1101 15.2681 18.3727 15.2104 18.4327C15.081 18.5672 14.9491 18.6942 14.8225 18.8163C14.0398 19.5708 13.4529 20.1366 14.855 21.0606C15.5288 21.5046 16.068 21.8717 16.6059 22.238C17.1933 22.6381 17.7792 23.0372 18.5372 23.5341C18.7304 23.6607 18.9148 23.7922 19.0945 23.9202C19.7781 24.4076 20.3923 24.8454 21.1511 24.7756C21.592 24.735 22.0474 24.3205 22.2787 23.0841C22.8253 20.1619 23.8997 13.8304 24.148 11.2213C24.1699 10.9928 24.1425 10.7002 24.1205 10.5718C24.0985 10.4434 24.0526 10.2604 23.8857 10.1249C23.688 9.96454 23.3828 9.93072 23.2463 9.93311C22.6256 9.94406 21.6736 10.2751 17.0912 12.181Z" fill="black"/>
</svg>
